<svg width="200" height="46" viewBox="0 0 200 46" fill="none" xmlns="http://www.w3.org/2000/svg">
<g clip-path="url(#clip0_1_159)">
<g clip-path="url(#clip1_1_159)">
<g clip-path="url(#clip2_1_159)">
<path d="M152.499 29.6667C149.204 29.6232 146.543 26.9622 146.499 23.6667C146.543 20.3711 149.204 17.7101 152.499 17.6667C155.795 17.7101 158.456 20.3711 158.499 23.6667C158.456 26.9622 155.795 29.6232 152.499 29.6667ZM152.499 19C149.936 19.0338 147.866 21.1035 147.833 23.6667C147.866 26.2299 149.936 28.2996 152.499 28.3333C155.063 28.2996 157.132 26.2299 157.166 23.6667C157.132 21.1035 155.063 19.0338 152.499 19ZM155.833 24.3333H151.833V20.3333H153.166V23H155.833V24.3333ZM158.027 19.472L156.021 17.472L156.961 16.5273L158.967 18.5273L158.027 19.4713V19.472ZM146.971 19.472L146.027 18.5273L148.021 16.5273L148.965 17.472L146.972 19.472H146.971Z" fill="#23A6F0"/>
</g>
<path d="M168.74 23.244C169.308 22.668 169.712 22.216 169.952 21.888C170.192 21.56 170.312 21.228 170.312 20.892C170.312 20.556 170.184 20.272 169.928 20.04C169.672 19.8 169.348 19.68 168.956 19.68C168.268 19.68 167.696 20.032 167.24 20.736L166.1 20.076C166.468 19.524 166.872 19.108 167.312 18.828C167.76 18.548 168.332 18.408 169.028 18.408C169.732 18.408 170.348 18.632 170.876 19.08C171.404 19.52 171.668 20.124 171.668 20.892C171.668 21.324 171.556 21.736 171.332 22.128C171.108 22.52 170.696 23.024 170.096 23.64L168.128 25.644H171.932V27H166.196V25.8L168.74 23.244ZM176.006 23.244C176.574 22.668 176.978 22.216 177.218 21.888C177.458 21.56 177.578 21.228 177.578 20.892C177.578 20.556 177.45 20.272 177.194 20.04C176.938 19.8 176.614 19.68 176.222 19.68C175.534 19.68 174.962 20.032 174.506 20.736L173.366 20.076C173.734 19.524 174.138 19.108 174.578 18.828C175.026 18.548 175.598 18.408 176.294 18.408C176.998 18.408 177.614 18.632 178.142 19.08C178.67 19.52 178.934 20.124 178.934 20.892C178.934 21.324 178.822 21.736 178.598 22.128C178.374 22.52 177.962 23.024 177.362 23.64L175.394 25.644H179.198V27H173.462V25.8L176.006 23.244ZM182.349 23.544V27H181.005V18.108H182.349V21.78C182.541 21.388 182.829 21.08 183.213 20.856C183.605 20.632 184.025 20.52 184.473 20.52C185.193 20.52 185.773 20.74 186.213 21.18C186.661 21.62 186.885 22.256 186.885 23.088V27H185.541V23.496C185.541 22.32 185.053 21.732 184.077 21.732C183.613 21.732 183.209 21.888 182.865 22.2C182.521 22.504 182.349 22.952 182.349 23.544ZM192.311 21.876C191.647 21.876 191.147 22.092 190.811 22.524C190.475 22.956 190.307 23.536 190.307 24.264V27H188.963V20.616H190.307V21.9C190.523 21.5 190.815 21.172 191.183 20.916C191.559 20.66 191.955 20.528 192.371 20.52L192.383 21.876C192.359 21.876 192.335 21.876 192.311 21.876ZM193.465 26.832C193.297 26.656 193.213 26.444 193.213 26.196C193.213 25.948 193.297 25.74 193.465 25.572C193.641 25.396 193.853 25.308 194.101 25.308C194.349 25.308 194.561 25.396 194.737 25.572C194.913 25.74 195.001 25.948 195.001 26.196C195.001 26.444 194.913 26.656 194.737 26.832C194.561 27.008 194.349 27.096 194.101 27.096C193.853 27.096 193.641 27.008 193.465 26.832ZM197.028 26.832C196.86 26.656 196.776 26.444 196.776 26.196C196.776 25.948 196.86 25.74 197.028 25.572C197.204 25.396 197.416 25.308 197.664 25.308C197.912 25.308 198.124 25.396 198.3 25.572C198.476 25.74 198.564 25.948 198.564 26.196C198.564 26.444 198.476 26.656 198.3 26.832C198.124 27.008 197.912 27.096 197.664 27.096C197.416 27.096 197.204 27.008 197.028 26.832Z" fill="#737373"/>
</g>
<g clip-path="url(#clip3_1_159)">
<path d="M78.5 18.307L77.8425 18.5255C76.9214 18.814 75.9649 18.9737 75 19C74.133 19 73.339 18.5465 72.498 18.066C71.581 17.542 70.633 17 69.5 17C68.0615 17 66.4575 18.103 65.5 18.886V16H64.5V29C64.5003 29.2651 64.6057 29.5193 64.7932 29.7068C64.9807 29.8943 65.2349 29.9997 65.5 30H78.5V18.307ZM65.5 25.147C66.437 23.688 68.28 21.5 69.5 21.5C70.319 21.5 70.98 22.051 71.68 22.6345C72.4485 23.2745 73.319 24 74.5 24C75.618 23.9464 76.6809 23.4984 77.5 22.7355V25.2135C76.5781 25.7138 75.5488 25.9837 74.5 26C73.6978 25.9786 72.9053 25.8181 72.158 25.5255C71.3092 25.1974 70.4098 25.0196 69.5 25C68.0365 25 66.466 26.4795 65.5 27.579V25.147ZM69.5 18C70.367 18 71.161 18.4535 72.002 18.934C72.919 19.458 73.867 20 75 20C75.8438 19.9858 76.6829 19.872 77.5 19.661V21.3215C77.1585 21.723 75.958 23 74.5 23C73.681 23 73.02 22.449 72.32 21.8655C71.5515 21.2255 70.681 20.5 69.5 20.5C68.032 20.5 66.4685 22.17 65.5 23.4225V20.212C66.273 19.483 68.1295 18 69.5 18ZM65.6245 29C66.431 27.9545 68.205 26 69.5 26C70.3023 26.0214 71.0947 26.1819 71.842 26.4745C72.6908 26.8026 73.5902 26.9804 74.5 27C75.536 26.9901 76.5582 26.7618 77.5 26.33V29H65.6245Z" fill="#E77C40"/>
<path d="M88.748 19.728C88.004 19.728 87.456 19.98 87.104 20.484C86.752 20.988 86.572 21.668 86.564 22.524C86.764 22.3 87.052 22.092 87.428 21.9C87.804 21.7 88.22 21.6 88.676 21.6C89.428 21.6 90.056 21.852 90.56 22.356C91.072 22.852 91.328 23.516 91.328 24.348C91.328 25.172 91.052 25.836 90.5 26.34C89.956 26.844 89.268 27.096 88.436 27.096C87.092 27.096 86.164 26.496 85.652 25.296C85.364 24.608 85.22 23.832 85.22 22.968C85.22 22.104 85.312 21.384 85.496 20.808C85.68 20.232 85.932 19.776 86.252 19.44C86.876 18.784 87.64 18.456 88.544 18.456C89.456 18.456 90.28 18.74 91.016 19.308L90.308 20.352C90.124 20.192 89.876 20.048 89.564 19.92C89.26 19.792 88.988 19.728 88.748 19.728ZM88.484 22.848C88.004 22.848 87.6 22.984 87.272 23.256C86.952 23.52 86.792 23.868 86.792 24.3C86.792 24.724 86.948 25.092 87.26 25.404C87.572 25.708 87.964 25.86 88.436 25.86C88.908 25.86 89.3 25.724 89.612 25.452C89.924 25.172 90.08 24.82 90.08 24.396C90.08 23.964 89.936 23.6 89.648 23.304C89.36 23 88.972 22.848 88.484 22.848ZM96.1854 23.604V22.068H97.5294V23.604H98.5374V24.888H97.5294V27H96.1854V24.888H92.5854V23.64L95.6694 18.612H97.2174L94.1814 23.604H96.1854ZM103.866 27V18.612H105.282V25.656H109.11V27H103.866ZM116.61 24.396H111.606C111.638 24.86 111.85 25.236 112.242 25.524C112.634 25.804 113.082 25.944 113.586 25.944C114.386 25.944 114.994 25.692 115.41 25.188L116.178 26.028C115.49 26.74 114.594 27.096 113.49 27.096C112.594 27.096 111.83 26.8 111.198 26.208C110.574 25.608 110.262 24.808 110.262 23.808C110.262 22.8 110.582 22 111.222 21.408C111.862 20.816 112.614 20.52 113.478 20.52C114.35 20.52 115.09 20.784 115.698 21.312C116.306 21.832 116.61 22.552 116.61 23.472V24.396ZM111.606 23.34H115.266C115.266 22.804 115.098 22.392 114.762 22.104C114.426 21.816 114.01 21.672 113.514 21.672C113.026 21.672 112.586 21.824 112.194 22.128C111.802 22.424 111.606 22.828 111.606 23.34ZM122.836 25.092C122.836 25.7 122.616 26.188 122.176 26.556C121.736 26.916 121.172 27.096 120.484 27.096C120.02 27.096 119.536 27.012 119.032 26.844C118.536 26.676 118.096 26.44 117.712 26.136L118.36 25.092C119.104 25.652 119.824 25.932 120.52 25.932C120.824 25.932 121.064 25.864 121.24 25.728C121.416 25.584 121.504 25.404 121.504 25.188C121.504 24.868 121.08 24.58 120.232 24.324C120.168 24.3 120.12 24.284 120.088 24.276C118.76 23.916 118.096 23.316 118.096 22.476C118.096 21.884 118.324 21.412 118.78 21.06C119.244 20.7 119.844 20.52 120.58 20.52C121.316 20.52 122.012 20.736 122.668 21.168L122.164 22.164C121.644 21.82 121.08 21.648 120.472 21.648C120.152 21.648 119.892 21.708 119.692 21.828C119.492 21.94 119.392 22.112 119.392 22.344C119.392 22.552 119.496 22.704 119.704 22.8C119.848 22.872 120.048 22.94 120.304 23.004C120.568 23.068 120.8 23.132 121 23.196C121.2 23.26 121.392 23.332 121.576 23.412C121.768 23.492 121.972 23.604 122.188 23.748C122.62 24.036 122.836 24.484 122.836 25.092ZM124.631 26.832C124.463 26.656 124.379 26.444 124.379 26.196C124.379 25.948 124.463 25.74 124.631 25.572C124.807 25.396 125.019 25.308 125.267 25.308C125.515 25.308 125.727 25.396 125.903 25.572C126.079 25.74 126.167 25.948 126.167 26.196C126.167 26.444 126.079 26.656 125.903 26.832C125.727 27.008 125.515 27.096 125.267 27.096C125.019 27.096 124.807 27.008 124.631 26.832ZM128.194 26.832C128.026 26.656 127.942 26.444 127.942 26.196C127.942 25.948 128.026 25.74 128.194 25.572C128.37 25.396 128.582 25.308 128.83 25.308C129.078 25.308 129.29 25.396 129.466 25.572C129.642 25.74 129.73 25.948 129.73 26.196C129.73 26.444 129.642 26.656 129.466 26.832C129.29 27.008 129.078 27.096 128.83 27.096C128.582 27.096 128.37 27.008 128.194 26.832ZM131.757 26.832C131.589 26.656 131.505 26.444 131.505 26.196C131.505 25.948 131.589 25.74 131.757 25.572C131.933 25.396 132.145 25.308 132.393 25.308C132.641 25.308 132.853 25.396 133.029 25.572C133.205 25.74 133.293 25.948 133.293 26.196C133.293 26.444 133.205 26.656 133.029 26.832C132.853 27.008 132.641 27.096 132.393 27.096C132.145 27.096 131.933 27.008 131.757 26.832Z" fill="#737373"/>
</g>
<g clip-path="url(#clip4_1_159)">
<g clip-path="url(#clip5_1_159)">
<path d="M8.49934 29.6667C5.20379 29.6232 2.54278 26.9622 2.49934 23.6667C2.54278 20.3711 5.20379 17.7101 8.49934 17.6667C11.7949 17.7101 14.4559 20.3711 14.4993 23.6667C14.4559 26.9622 11.7949 29.6232 8.49934 29.6667ZM8.49934 19C5.93612 19.0338 3.86642 21.1035 3.83268 23.6667C3.86642 26.2299 5.93612 28.2996 8.49934 28.3333C11.0626 28.2996 13.1323 26.2299 13.166 23.6667C13.1323 21.1035 11.0626 19.0338 8.49934 19ZM11.8327 24.3333H7.83268V20.3333H9.16601V23H11.8327V24.3333ZM14.0273 19.472L12.0213 17.472L12.9607 16.5273L14.9673 18.5273L14.0273 19.4713V19.472ZM2.97068 19.472L2.02734 18.5273L4.02134 16.5273L4.96468 17.472L2.97201 19.472H2.97068Z" fill="#23A6F0"/>
</g>
<path d="M25.544 18.612C26.816 18.612 27.744 18.856 28.328 19.344C28.912 19.832 29.204 20.584 29.204 21.6C29.204 22.616 28.904 23.36 28.304 23.832C27.712 24.304 26.8 24.54 25.568 24.54H24.08V27H22.664V18.612H25.544ZM25.724 23.256C26.508 23.256 27.04 23.108 27.32 22.812C27.608 22.508 27.752 22.068 27.752 21.492C27.752 20.908 27.572 20.496 27.212 20.256C26.852 20.016 26.288 19.896 25.52 19.896H24.08V23.256H25.724ZM34.2231 21.876C33.5591 21.876 33.0591 22.092 32.7231 22.524C32.3871 22.956 32.2191 23.536 32.2191 24.264V27H30.8751V20.616H32.2191V21.9C32.4351 21.5 32.7271 21.172 33.0951 20.916C33.4711 20.66 33.8671 20.528 34.2831 20.52L34.2951 21.876C34.2711 21.876 34.2471 21.876 34.2231 21.876ZM37.2155 25.32C37.5995 25.704 38.0835 25.896 38.6675 25.896C39.2515 25.896 39.7315 25.704 40.1075 25.32C40.4915 24.928 40.6835 24.424 40.6835 23.808C40.6835 23.192 40.4915 22.692 40.1075 22.308C39.7315 21.916 39.2515 21.72 38.6675 21.72C38.0835 21.72 37.5995 21.916 37.2155 22.308C36.8395 22.692 36.6515 23.192 36.6515 23.808C36.6515 24.424 36.8395 24.928 37.2155 25.32ZM41.0675 26.148C40.4275 26.78 39.6275 27.096 38.6675 27.096C37.7075 27.096 36.9075 26.78 36.2675 26.148C35.6275 25.508 35.3075 24.728 35.3075 23.808C35.3075 22.888 35.6275 22.112 36.2675 21.48C36.9075 20.84 37.7075 20.52 38.6675 20.52C39.6275 20.52 40.4275 20.84 41.0675 21.48C41.7075 22.112 42.0275 22.888 42.0275 23.808C42.0275 24.728 41.7075 25.508 41.0675 26.148ZM43.8276 26.832C43.6596 26.656 43.5756 26.444 43.5756 26.196C43.5756 25.948 43.6596 25.74 43.8276 25.572C44.0036 25.396 44.2156 25.308 44.4636 25.308C44.7116 25.308 44.9236 25.396 45.0996 25.572C45.2756 25.74 45.3636 25.948 45.3636 26.196C45.3636 26.444 45.2756 26.656 45.0996 26.832C44.9236 27.008 44.7116 27.096 44.4636 27.096C44.2156 27.096 44.0036 27.008 43.8276 26.832ZM47.3909 26.832C47.2229 26.656 47.1389 26.444 47.1389 26.196C47.1389 25.948 47.2229 25.74 47.3909 25.572C47.5669 25.396 47.7789 25.308 48.0269 25.308C48.2749 25.308 48.4869 25.396 48.6629 25.572C48.8389 25.74 48.9269 25.948 48.9269 26.196C48.9269 26.444 48.8389 26.656 48.6629 26.832C48.4869 27.008 48.2749 27.096 48.0269 27.096C47.7789 27.096 47.5669 27.008 47.3909 26.832ZM50.9542 26.832C50.7862 26.656 50.7022 26.444 50.7022 26.196C50.7022 25.948 50.7862 25.74 50.9542 25.572C51.1302 25.396 51.3422 25.308 51.5902 25.308C51.8382 25.308 52.0502 25.396 52.2262 25.572C52.4022 25.74 52.4902 25.948 52.4902 26.196C52.4902 26.444 52.4022 26.656 52.2262 26.832C52.0502 27.008 51.8382 27.096 51.5902 27.096C51.3422 27.096 51.1302 27.008 50.9542 26.832Z" fill="#737373"/>
</g>
</g>
<defs>
<clipPath id="clip0_1_159">
<rect width="199" height="46" fill="white" transform="matrix(-1 0 0 1 199.5 0)"/>
</clipPath>
<clipPath id="clip1_1_159">
<rect width="55" height="16" fill="white" transform="translate(144.5 15)"/>
</clipPath>
<clipPath id="clip2_1_159">
<rect width="16" height="16" fill="white" transform="translate(144.5 15)"/>
</clipPath>
<clipPath id="clip3_1_159">
<rect width="71" height="16" fill="white" transform="translate(63.5 15)"/>
</clipPath>
<clipPath id="clip4_1_159">
<rect width="53" height="16" fill="white" transform="translate(0.5 15)"/>
</clipPath>
<clipPath id="clip5_1_159">
<rect width="16" height="16" fill="white" transform="translate(0.5 15)"/>
</clipPath>
</defs>
</svg>
